<?xml version="1.0" encoding="UTF-8" standalone="no"?>
<!-- Created with Inkscape (http://www.inkscape.org/) -->

<svg
   width="127.99999"
   height="127.99999"
   viewBox="0 0 53.792178 53.792178"
   version="1.1"
   id="svg1"
   xml:space="preserve"
   xmlns="http://www.w3.org/2000/svg"
   xmlns:svg="http://www.w3.org/2000/svg"><defs
     id="defs1" /><rect
     style="fill:#ffffff;stroke:#000000;stroke-width:1.07024;stroke-linecap:round;stroke-linejoin:bevel;stroke-miterlimit:1"
     id="rect1"
     width="35.674686"
     height="35.67469"
     x="16.68824"
     y="16.820248"
     rx="0.71349382"
     ry="0.71349382" /><g
     id="g1"
     transform="matrix(3.15383,0,0,3.15383,-1.9219598,-1.3822892)"><path
       d="M 1.363636,13.636364 4.65,12.85 l -1.6,-1 -0.85,-1.4 z"
       fill="#ffffff"
       stroke="#000000"
       stroke-width="0.2"
       stroke-linejoin="round"
       transform="matrix(1.1,0,0,1.1,-0.5,0.5)"
       id="path1" /><path
       d="M 2.2,10.45 11.05,0.65 12.1,1.9 3.05,11.85 Z"
       fill="#ffffff"
       stroke="#000000"
       stroke-width="0.2"
       stroke-linejoin="round"
       transform="matrix(1.1,0,0,1.1,-0.5,0.5)"
       id="path2" /><path
       d="m 3.05,11.85 1.6,1 L 14,2.65 12.1,1.9 Z"
       fill="#ffffff"
       stroke="#000000"
       stroke-width="0.2"
       stroke-linejoin="round"
       transform="matrix(1.1,0,0,1.1,-0.5,0.5)"
       id="path3" /><path
       d="M 11.05,0.65 12.1,1.9 14,2.65 14.35,2.2 13.181818,0.909091 11.590909,0.227273 Z"
       fill="#ffffff"
       stroke="#000000"
       stroke-width="0.2"
       stroke-linejoin="round"
       transform="matrix(1.1,0,0,1.1,-0.5,0.5)"
       id="path4" /></g></svg>
