<svg xmlns="http://www.w3.org/2000/svg" width="16" height="16"><path d="M1.75 13.25 4.65 12.85 3.05 11.85 2.2 10.45Z" fill="#fff" stroke="#000" stroke-width=".2" stroke-linejoin="round"/><path d="M2.2 10.45 11.05.65 12.1 1.9 3.05 11.85Z" fill="#fff" stroke="#000" stroke-width=".2" stroke-linejoin="round"/><path d="M3.05 11.85 4.65 12.85 14 2.65 12.1 1.9Z" fill="#fff" stroke="#000" stroke-width=".2" stroke-linejoin="round"/><path d="M11.05.65 12.1 1.9 14 2.65 14.35 2.2 13.15.9 11.5.2Z" fill="#fff" stroke="#000" stroke-width=".2" stroke-linejoin="round"/><path d="M1.635 13.876A1 1 0 003.442 14.101 1 1 0 015.031 14.035 1 1 0 006.448 14.087 1 1 0 017.865 13.75 1 1 0 009.228 13.584 1 1 0 0111.042 13.525 1 1 0 0012.088 14.061" fill="none" stroke="#fff" stroke-linecap="round" stroke-width=".4" opacity="1"/></svg>